<?xml version="1.0" encoding="UTF-8"?>
<!DOCTYPE svg PUBLIC "-//W3C//DTD SVG 1.1//EN" "http://www.w3.org/Graphics/SVG/1.1/DTD/svg11.dtd">
<svg xmlns="http://www.w3.org/2000/svg" version="1.1" width="500px" height="500px" style="shape-rendering:geometricPrecision; text-rendering:geometricPrecision; image-rendering:optimizeQuality; fill-rule:evenodd; clip-rule:evenodd" xmlns:xlink="http://www.w3.org/1999/xlink">
<g><path style="opacity:1" fill="#352520" d="M 299.5,119.5 C 299.631,120.239 299.464,120.906 299,121.5C 297.511,117.782 296.678,117.782 296.5,121.5C 299.134,128.556 300.468,135.889 300.5,143.5C 299.114,149.095 298.114,154.762 297.5,160.5C 296.691,158.708 296.191,156.708 296,154.5C 294.875,158.553 293.375,162.386 291.5,166C 292.416,166.278 293.082,166.778 293.5,167.5C 291.413,168.585 290.08,170.251 289.5,172.5C 288.85,172.804 288.183,173.137 287.5,173.5C 286.526,171.257 286.192,168.924 286.5,166.5C 286.336,163.813 286.503,161.146 287,158.5C 287.175,162.211 287.675,165.878 288.5,169.5C 289.308,169.192 289.975,168.692 290.5,168C 289.684,160.579 289.184,153.079 289,145.5C 286.69,138.806 285.524,139.139 285.5,146.5C 284.85,142.545 283.517,138.712 281.5,135C 280.391,134.362 279.225,133.862 278,133.5C 275.953,134.609 273.787,135.276 271.5,135.5C 273.942,133.774 276.609,132.274 279.5,131C 273.414,132.024 267.414,133.69 261.5,136C 253.103,136.87 244.77,136.537 236.5,135C 231.873,133.18 227.539,131.18 223.5,129C 213.734,137.627 209.9,148.46 212,161.5C 212.438,163.642 213.272,164.975 214.5,165.5C 214.5,168.167 214.5,170.833 214.5,173.5C 214.631,174.376 214.298,175.043 213.5,175.5C 211.812,173.146 209.812,171.146 207.5,169.5C 207.918,168.778 208.584,168.278 209.5,168C 207.354,165.205 206.187,162.039 206,158.5C 205.768,159.737 205.268,160.737 204.5,161.5C 203.908,158.873 203.575,156.206 203.5,153.5C 201.437,138.484 206.437,126.651 218.5,118C 220.134,117.506 221.801,117.34 223.5,117.5C 223.67,116.178 223.337,115.011 222.5,114C 223.416,113.722 224.082,113.222 224.5,112.5C 224.427,110.973 225.094,109.973 226.5,109.5C 228.695,110.219 230.195,109.219 231,106.5C 231.333,106.833 231.667,107.167 232,107.5C 234.998,105.919 238.165,104.753 241.5,104C 255.499,104.06 269.499,104.06 283.5,104C 278.47,103.552 273.47,102.886 268.5,102C 269.793,101.51 271.127,101.343 272.5,101.5C 281.086,102.23 289.42,101.23 297.5,98.5C 298.489,100.588 298.156,102.588 296.5,104.5C 297.557,104.906 298.891,104.906 300.5,104.5C 300.116,107.769 298.782,110.603 296.5,113C 298.689,113.677 299.022,114.844 297.5,116.5C 298.193,117.518 298.859,118.518 299.5,119.5 Z"/></g>
<g><path style="opacity:1" fill="#503e38" d="M 272.5,101.5 C 271.127,101.343 269.793,101.51 268.5,102C 273.47,102.886 278.47,103.552 283.5,104C 269.499,104.06 255.499,104.06 241.5,104C 238.165,104.753 234.998,105.919 232,107.5C 231.667,107.167 231.333,106.833 231,106.5C 230.195,109.219 228.695,110.219 226.5,109.5C 231.675,104.246 238.009,101.079 245.5,100C 252.5,99.3333 259.5,99.3333 266.5,100C 268.708,100.191 270.708,100.691 272.5,101.5 Z"/></g>
<g><path style="opacity:1" fill="#513f38" d="M 224.5,112.5 C 224.082,113.222 223.416,113.722 222.5,114C 223.337,115.011 223.67,116.178 223.5,117.5C 221.801,117.34 220.134,117.506 218.5,118C 206.437,126.651 201.437,138.484 203.5,153.5C 199.125,142.007 199.625,130.674 205,119.5C 209.962,112.803 216.462,110.47 224.5,112.5 Z"/></g>
<g><path style="opacity:1" fill="#49342c" d="M 271.5,119.5 C 273.857,119.337 276.19,119.503 278.5,120C 266.597,126.477 253.93,129.144 240.5,128C 237.202,127.513 234.202,126.347 231.5,124.5C 245.006,123.114 258.339,121.447 271.5,119.5 Z"/></g>
<g><path style="opacity:0.993" fill="#40302b" d="M 136.5,128.5 C 141.121,127.993 145.454,128.826 149.5,131C 160.579,139.721 163.579,150.554 158.5,163.5C 161.151,165.65 163.651,167.983 166,170.5C 167.254,174.111 166.088,175.611 162.5,175C 158.652,170.984 154.652,167.151 150.5,163.5C 155.43,159.02 156.596,153.687 154,147.5C 151.935,141.267 147.768,137.267 141.5,135.5C 135.016,137.624 134.016,141.29 138.5,146.5C 135.997,150.403 133.163,150.403 130,146.5C 127.117,138.649 129.283,132.649 136.5,128.5 Z"/></g>
<g><path style="opacity:1" fill="#da9d76" d="M 271.5,135.5 C 273.787,135.276 275.953,134.609 278,133.5C 279.225,133.862 280.391,134.362 281.5,135C 283.517,138.712 284.85,142.545 285.5,146.5C 285.176,153.354 285.509,160.021 286.5,166.5C 286.192,168.924 286.526,171.257 287.5,173.5C 288.183,173.137 288.85,172.804 289.5,172.5C 289.38,173.586 288.713,174.253 287.5,174.5C 284.989,172.531 283.489,169.864 283,166.5C 282.278,158.838 281.612,151.171 281,143.5C 280.55,141.481 279.717,139.648 278.5,138C 273.348,139.826 268.015,141.493 262.5,143C 253.342,144.093 244.342,143.426 235.5,141C 232.241,139.789 229.408,137.956 227,135.5C 224.667,137.833 222.333,140.167 220,142.5C 219.328,150.542 218.328,158.542 217,166.5C 216.61,169.104 215.776,171.438 214.5,173.5C 214.5,170.833 214.5,168.167 214.5,165.5C 215.81,158.033 216.643,150.367 217,142.5C 219.463,139.035 222.296,135.869 225.5,133C 230.533,135.35 235.866,137.35 241.5,139C 248.5,139.667 255.5,139.667 262.5,139C 265.802,138.339 268.802,137.172 271.5,135.5 Z"/></g>
<g><path style="opacity:1" fill="#4e3e38" d="M 299.5,119.5 C 301.933,123.192 302.933,127.359 302.5,132C 302.651,136.112 301.984,139.946 300.5,143.5C 300.468,135.889 299.134,128.556 296.5,121.5C 296.678,117.782 297.511,117.782 299,121.5C 299.464,120.906 299.631,120.239 299.5,119.5 Z"/></g>
<g><path style="opacity:1" fill="#f0b68d" d="M 289.5,172.5 C 290.08,170.251 291.413,168.585 293.5,167.5C 295.67,166.232 297.837,166.232 300,167.5C 301.327,177.177 297.327,183.511 288,186.5C 285.078,200.767 276.911,210.934 263.5,217C 255.02,220.464 246.686,220.297 238.5,216.5C 232.266,211.767 226.433,206.433 221,200.5C 219.435,196.598 217.602,192.931 215.5,189.5C 209.662,187.497 205.162,183.831 202,178.5C 201.333,175.5 201.333,172.5 202,169.5C 203.828,168.248 205.661,168.248 207.5,169.5C 209.812,171.146 211.812,173.146 213.5,175.5C 214.298,175.043 214.631,174.376 214.5,173.5C 215.776,171.438 216.61,169.104 217,166.5C 218.328,158.542 219.328,150.542 220,142.5C 222.333,140.167 224.667,137.833 227,135.5C 229.408,137.956 232.241,139.789 235.5,141C 244.342,143.426 253.342,144.093 262.5,143C 268.015,141.493 273.348,139.826 278.5,138C 279.717,139.648 280.55,141.481 281,143.5C 281.612,151.171 282.278,158.838 283,166.5C 283.489,169.864 284.989,172.531 287.5,174.5C 288.713,174.253 289.38,173.586 289.5,172.5 Z"/></g>
<g><path style="opacity:1" fill="#513d35" d="M 286.5,166.5 C 285.509,160.021 285.176,153.354 285.5,146.5C 285.524,139.139 286.69,138.806 289,145.5C 289.184,153.079 289.684,160.579 290.5,168C 289.975,168.692 289.308,169.192 288.5,169.5C 287.675,165.878 287.175,162.211 287,158.5C 286.503,161.146 286.336,163.813 286.5,166.5 Z"/></g>
<g><path style="opacity:1" fill="#4a3730" d="M 271.5,135.5 C 268.802,137.172 265.802,138.339 262.5,139C 255.5,139.667 248.5,139.667 241.5,139C 235.866,137.35 230.533,135.35 225.5,133C 222.296,135.869 219.463,139.035 217,142.5C 216.643,150.367 215.81,158.033 214.5,165.5C 213.272,164.975 212.438,163.642 212,161.5C 209.9,148.46 213.734,137.627 223.5,129C 227.539,131.18 231.873,133.18 236.5,135C 244.77,136.537 253.103,136.87 261.5,136C 267.414,133.69 273.414,132.024 279.5,131C 276.609,132.274 273.942,133.774 271.5,135.5 Z"/></g>
<g><path style="opacity:1" fill="#43332e" d="M 227.5,150.5 C 232.54,149.848 236.873,151.182 240.5,154.5C 240.167,154.833 239.833,155.167 239.5,155.5C 232.586,150.757 226.753,151.757 222,158.5C 221.333,157.5 221.333,156.5 222,155.5C 223.73,153.598 225.563,151.931 227.5,150.5 Z"/></g>
<g><path style="opacity:1" fill="#44342f" d="M 266.5,149.5 C 272.494,148.603 277.161,150.603 280.5,155.5C 280.167,155.833 279.833,156.167 279.5,156.5C 274.517,150.669 268.85,150.002 262.5,154.5C 261.479,153.998 261.312,153.332 262,152.5C 263.652,151.601 265.152,150.601 266.5,149.5 Z"/></g>
<g><path style="opacity:0.99" fill="#4a3b36" d="M 172.5,177.5 C 177.305,178.599 178.305,181.099 175.5,185C 168.934,184.805 167.934,182.305 172.5,177.5 Z"/></g>
<g><path style="opacity:1" fill="#e77230" d="M 183.5,221.5 C 187.182,221.335 190.848,221.501 194.5,222C 197.034,222.516 199.2,223.683 201,225.5C 204.553,232.606 207.553,239.939 210,247.5C 212.127,251.589 214.627,255.423 217.5,259C 218.5,259.667 219.5,259.667 220.5,259C 223.203,255.962 226.203,253.295 229.5,251C 231.701,250.175 233.534,250.675 235,252.5C 237.616,261.646 238.783,270.979 238.5,280.5C 238.5,280.833 238.5,281.167 238.5,281.5C 237.033,289.282 236.366,297.282 236.5,305.5C 236.501,310.678 236.834,315.678 237.5,320.5C 237.5,325.167 237.5,329.833 237.5,334.5C 236.691,332.708 236.191,330.708 236,328.5C 235.302,342.165 234.635,355.832 234,369.5C 233.323,378.936 231.99,388.269 230,397.5C 225.775,404.345 219.942,406.178 212.5,403C 201.32,395.309 195.654,384.643 195.5,371C 196.927,357.48 196.76,343.98 195,330.5C 194.722,331.416 194.222,332.082 193.5,332.5C 193.5,328.833 193.5,325.167 193.5,321.5C 193.666,314.159 193.5,306.826 193,299.5C 191.878,292.143 190.711,284.81 189.5,277.5C 191.095,275.626 190.761,274.793 188.5,275C 186.781,276.87 185.781,279.037 185.5,281.5C 184.792,285.785 184.292,290.118 184,294.5C 179.937,286.041 175.603,277.707 171,269.5C 166.116,260.773 165.449,251.773 169,242.5C 171.684,236.456 174.851,230.789 178.5,225.5C 179.585,223.413 181.251,222.08 183.5,221.5 Z"/></g>
<g><path style="opacity:1" fill="#e77331" d="M 309.5,277.5 C 309.5,278.167 309.5,278.833 309.5,279.5C 309.5,285.167 309.5,290.833 309.5,296.5C 306.772,313.724 305.438,331.057 305.5,348.5C 304.677,345.023 304.177,341.356 304,337.5C 306.291,363.714 301.291,388.38 289,411.5C 286.553,415.784 283.053,418.784 278.5,420.5C 274.625,419.461 271.792,417.128 270,413.5C 269,410.167 268,406.833 267,403.5C 265.95,387.851 265.283,372.185 265,356.5C 264.234,344.64 263.067,332.973 261.5,321.5C 261.5,318.167 261.5,314.833 261.5,311.5C 264.089,300.494 264.089,289.494 261.5,278.5C 261.5,277.5 261.5,276.5 261.5,275.5C 261.963,268.412 263.463,261.412 266,254.5C 267.388,253.446 268.888,253.28 270.5,254C 273.797,256.295 276.797,258.962 279.5,262C 280.5,262.667 281.5,262.667 282.5,262C 284.333,259.5 286.167,257 288,254.5C 291.814,245.382 295.814,236.382 300,227.5C 308.579,221.541 316.246,222.541 323,230.5C 327.789,236.747 330.956,243.747 332.5,251.5C 330.6,262.987 324.933,271.987 315.5,278.5C 312.23,276.733 309.397,274.4 307,271.5C 306.992,273.821 307.825,275.821 309.5,277.5 Z"/></g>
<g><path style="opacity:1" fill="#f1b68e" d="M 158.5,252.5 C 165.113,267.059 172.28,281.392 180,295.5C 181.46,298.748 182.626,302.081 183.5,305.5C 186.623,313.438 186.123,321.105 182,328.5C 179.293,332.035 175.793,333.202 171.5,332C 163.562,324.72 158.062,315.886 155,305.5C 150.64,289.338 147.14,273.005 144.5,256.5C 142.473,256.338 140.473,256.505 138.5,257C 134.667,260.167 130.833,263.333 127,266.5C 126.601,266.272 126.435,265.938 126.5,265.5C 127.969,263.895 127.635,263.395 125.5,264C 122.939,267.473 119.939,270.473 116.5,273C 114.866,273.494 113.199,273.66 111.5,273.5C 115.454,270.179 119.454,266.845 123.5,263.5C 123.376,262.893 123.043,262.56 122.5,262.5C 118.407,261.287 114.741,259.287 111.5,256.5C 105.266,264.042 97.2656,268.709 87.5,270.5C 87.393,268.097 88.393,266.264 90.5,265C 102.605,257.385 114.271,249.218 125.5,240.5C 118.461,238.127 113.794,233.461 111.5,226.5C 111.342,224.681 112.009,223.348 113.5,222.5C 116.063,225.142 118.729,227.642 121.5,230C 127.419,231.196 133.419,231.862 139.5,232C 142.916,233.25 145.583,235.417 147.5,238.5C 146.737,239.719 145.737,240.719 144.5,241.5C 146.672,241.676 149.005,241.843 151.5,242C 154.738,244.998 157.071,248.498 158.5,252.5 Z"/></g>
<g><path style="opacity:1" fill="#f1b78e" d="M 377.5,267.5 C 376.833,267.833 376.167,268.167 375.5,268.5C 374.624,268.369 373.957,268.702 373.5,269.5C 374.193,270.518 374.859,271.518 375.5,272.5C 371.532,270.168 367.866,267.335 364.5,264C 362.726,263.03 360.893,262.196 359,261.5C 358.235,261.57 357.735,261.903 357.5,262.5C 351.659,287.16 342.159,310.493 329,332.5C 324.965,337.364 320.632,337.698 316,333.5C 314.916,330.12 314.416,326.62 314.5,323C 314.446,317.716 315.113,312.549 316.5,307.5C 324.306,290.555 332.639,273.888 341.5,257.5C 343.528,253.297 346.195,249.464 349.5,246C 351.856,245.845 354.189,245.845 356.5,246C 355.272,245.221 354.272,244.221 353.5,243C 354.821,240.346 356.821,238.346 359.5,237C 365.167,236.667 370.833,236.333 376.5,236C 380.641,234.865 383.975,232.531 386.5,229C 387.448,228.517 388.448,228.351 389.5,228.5C 389.279,237.729 384.612,243.396 375.5,245.5C 385.748,254.63 396.748,262.797 408.5,270C 410.923,271.571 412.256,273.737 412.5,276.5C 403.751,274.457 396.084,270.29 389.5,264C 390.711,263.107 390.711,262.274 389.5,261.5C 385.752,264.041 381.752,266.041 377.5,267.5 Z"/></g>
<g><path style="opacity:1" fill="#dfa177" d="M 183.5,305.5 C 191.787,321.653 193.787,338.653 189.5,356.5C 184.494,361.89 178.827,362.723 172.5,359C 169.238,356.408 166.738,353.241 165,349.5C 152.84,319.667 145.006,289.5 141.5,259C 135.098,266.073 128.098,272.406 120.5,278C 115.245,280.302 110.245,279.969 105.5,277C 114.517,276.825 121.517,272.992 126.5,265.5C 126.435,265.938 126.601,266.272 127,266.5C 130.833,263.333 134.667,260.167 138.5,257C 140.473,256.505 142.473,256.338 144.5,256.5C 147.14,273.005 150.64,289.338 155,305.5C 158.062,315.886 163.562,324.72 171.5,332C 175.793,333.202 179.293,332.035 182,328.5C 186.123,321.105 186.623,313.438 183.5,305.5 Z"/></g>
<g><path style="opacity:1" fill="#dea077" d="M 357.5,262.5 C 357.735,261.903 358.235,261.57 359,261.5C 360.893,262.196 362.726,263.03 364.5,264C 367.866,267.335 371.532,270.168 375.5,272.5C 379.972,279.237 386.305,282.571 394.5,282.5C 388.818,285.215 383.151,285.048 377.5,282C 370.965,275.297 364.298,268.797 357.5,262.5 Z"/></g>
<g><path style="opacity:1" fill="#dfa178" d="M 357.5,262.5 C 354.796,294.473 346.629,325.139 333,354.5C 326.135,365.956 317.968,367.29 308.5,358.5C 304.975,340.366 307.641,323.366 316.5,307.5C 315.113,312.549 314.446,317.716 314.5,323C 314.416,326.62 314.916,330.12 316,333.5C 320.632,337.698 324.965,337.364 329,332.5C 342.159,310.493 351.659,287.16 357.5,262.5 Z"/></g>
<g><path style="opacity:1" fill="#49352d" d="M 297.5,160.5 C 304.588,169.032 303.922,177.199 295.5,185C 290.337,186.93 287.837,190.763 288,196.5C 283.549,204.618 277.383,211.118 269.5,216C 280.12,213.046 288.62,216.212 295,225.5C 309.828,216.411 321.495,219.411 330,234.5C 334.073,242.286 337.573,249.619 340.5,256.5C 341.167,256.5 341.5,256.833 341.5,257.5C 332.639,273.888 324.306,290.555 316.5,307.5C 307.641,323.366 304.975,340.366 308.5,358.5C 306.881,361.548 305.881,364.881 305.5,368.5C 305.5,361.833 305.5,355.167 305.5,348.5C 305.438,331.057 306.772,313.724 309.5,296.5C 310.77,292.346 311.77,288.013 312.5,283.5C 311.965,281.739 310.965,280.406 309.5,279.5C 309.5,278.833 309.5,278.167 309.5,277.5C 312.081,278.618 313.747,280.618 314.5,283.5C 311.732,294.703 310.232,306.037 310,317.5C 312.333,311.833 314.667,306.167 317,300.5C 324.184,286.797 331.351,273.13 338.5,259.5C 335.145,246.284 328.812,234.784 319.5,225C 311.616,221.428 303.949,221.928 296.5,226.5C 292.403,237.36 287.237,247.693 281,257.5C 276.979,251.979 272.146,247.312 266.5,243.5C 264.479,246.235 262.479,248.901 260.5,251.5C 260.5,250.833 260.167,250.5 259.5,250.5C 263.244,244.687 267.244,239.02 271.5,233.5C 268.564,228.627 265.897,223.627 263.5,218.5C 259.522,220.056 255.355,220.723 251,220.5C 246.495,220.705 242.161,220.038 238,218.5C 236.97,218.836 236.47,219.503 236.5,220.5C 234.441,224.271 232.108,227.938 229.5,231.5C 233.192,236.851 236.859,242.185 240.5,247.5C 239.833,247.5 239.5,247.833 239.5,248.5C 237.946,247.086 236.612,245.419 235.5,243.5C 234.635,242.417 233.635,242.251 232.5,243C 227.328,246.339 222.995,250.506 219.5,255.5C 213.828,245.318 208.828,234.818 204.5,224C 197.747,219.327 190.747,218.494 183.5,221.5C 181.251,222.08 179.585,223.413 178.5,225.5C 170.582,233.997 165.248,243.997 162.5,255.5C 162.692,257.577 163.192,259.577 164,261.5C 174.545,278.925 183.212,297.258 190,316.5C 189.967,304.538 188.467,292.871 185.5,281.5C 185.781,279.037 186.781,276.87 188.5,275C 190.761,274.793 191.095,275.626 189.5,277.5C 188.609,278.261 187.942,279.261 187.5,280.5C 190.23,294.193 192.23,307.86 193.5,321.5C 193.5,325.167 193.5,328.833 193.5,332.5C 193.5,340.167 193.5,347.833 193.5,355.5C 192.345,382.273 187.345,408.273 178.5,433.5C 177.624,433.631 176.957,433.298 176.5,432.5C 185.751,407.988 190.585,382.655 191,356.5C 190.617,357.056 190.117,357.389 189.5,357.5C 189.5,357.167 189.5,356.833 189.5,356.5C 193.787,338.653 191.787,321.653 183.5,305.5C 182.626,302.081 181.46,298.748 180,295.5C 172.28,281.392 165.113,267.059 158.5,252.5C 158.5,251.833 158.833,251.5 159.5,251.5C 160.117,251.611 160.617,251.944 161,252.5C 164.803,239.033 171.97,227.866 182.5,219C 191.007,216.419 199.007,217.586 206.5,222.5C 212.124,215.184 219.457,212.017 228.5,213C 219.818,207.827 214.484,200.327 212.5,190.5C 204.864,187.205 200.198,181.538 198.5,173.5C 198.44,169.244 200.44,166.91 204.5,166.5C 204.5,164.833 204.5,163.167 204.5,161.5C 205.268,160.737 205.768,159.737 206,158.5C 206.187,162.039 207.354,165.205 209.5,168C 208.584,168.278 207.918,168.778 207.5,169.5C 205.661,168.248 203.828,168.248 202,169.5C 201.333,172.5 201.333,175.5 202,178.5C 205.162,183.831 209.662,187.497 215.5,189.5C 216.244,198.763 220.578,205.93 228.5,211C 231.727,213.112 235.06,214.945 238.5,216.5C 246.686,220.297 255.02,220.464 263.5,217C 276.911,210.934 285.078,200.767 288,186.5C 297.327,183.511 301.327,177.177 300,167.5C 297.837,166.232 295.67,166.232 293.5,167.5C 293.082,166.778 292.416,166.278 291.5,166C 293.375,162.386 294.875,158.553 296,154.5C 296.191,156.708 296.691,158.708 297.5,160.5 Z"/></g>
<g><path style="opacity:1" fill="#c8561e" d="M 309.5,277.5 C 307.825,275.821 306.992,273.821 307,271.5C 309.397,274.4 312.23,276.733 315.5,278.5C 324.933,271.987 330.6,262.987 332.5,251.5C 330.956,243.747 327.789,236.747 323,230.5C 316.246,222.541 308.579,221.541 300,227.5C 295.814,236.382 291.814,245.382 288,254.5C 286.167,257 284.333,259.5 282.5,262C 281.5,262.667 280.5,262.667 279.5,262C 276.797,258.962 273.797,256.295 270.5,254C 268.888,253.28 267.388,253.446 266,254.5C 263.463,261.412 261.963,268.412 261.5,275.5C 260.776,267.521 260.442,259.521 260.5,251.5C 262.479,248.901 264.479,246.235 266.5,243.5C 272.146,247.312 276.979,251.979 281,257.5C 287.237,247.693 292.403,237.36 296.5,226.5C 303.949,221.928 311.616,221.428 319.5,225C 328.812,234.784 335.145,246.284 338.5,259.5C 331.351,273.13 324.184,286.797 317,300.5C 314.667,306.167 312.333,311.833 310,317.5C 310.232,306.037 311.732,294.703 314.5,283.5C 313.747,280.618 312.081,278.618 309.5,277.5 Z"/></g>
<g><path style="opacity:1" fill="#ec9f47" d="M 280.5,253.5 C 283.986,245.859 287.486,238.193 291,230.5C 291.667,229.167 291.667,227.833 291,226.5C 285.181,220.516 278.348,217.85 270.5,218.5C 280.72,215.613 288.387,218.78 293.5,228C 290.248,236.752 286.415,245.252 282,253.5C 281.31,254.738 280.81,254.738 280.5,253.5 Z"/></g>
<g><path style="opacity:1" fill="#f2b88f" d="M 236.5,220.5 C 239.356,223.097 242.689,224.93 246.5,226C 250.903,226.064 255.236,226.231 259.5,226.5C 261.798,229.263 263.132,232.43 263.5,236C 262.023,241.455 259.856,246.621 257,251.5C 256.667,257.833 256.333,264.167 256,270.5C 254.426,271.848 252.593,272.514 250.5,272.5C 247.493,271.153 244.493,269.82 241.5,268.5C 241.795,261.412 241.462,254.412 240.5,247.5C 236.859,242.185 233.192,236.851 229.5,231.5C 232.108,227.938 234.441,224.271 236.5,220.5 Z"/></g>
<g><path style="opacity:1" fill="#c8561d" d="M 239.5,248.5 C 239.828,259.346 239.494,270.013 238.5,280.5C 238.783,270.979 237.616,261.646 235,252.5C 233.534,250.675 231.701,250.175 229.5,251C 226.203,253.295 223.203,255.962 220.5,259C 219.5,259.667 218.5,259.667 217.5,259C 214.627,255.423 212.127,251.589 210,247.5C 207.553,239.939 204.553,232.606 201,225.5C 199.2,223.683 197.034,222.516 194.5,222C 190.848,221.501 187.182,221.335 183.5,221.5C 190.747,218.494 197.747,219.327 204.5,224C 208.828,234.818 213.828,245.318 219.5,255.5C 222.995,250.506 227.328,246.339 232.5,243C 233.635,242.251 234.635,242.417 235.5,243.5C 236.612,245.419 237.946,247.086 239.5,248.5 Z"/></g>
<g><path style="opacity:1" fill="#e77432" d="M 270.5,218.5 C 278.348,217.85 285.181,220.516 291,226.5C 291.667,227.833 291.667,229.167 291,230.5C 287.486,238.193 283.986,245.859 280.5,253.5C 276.98,248.818 272.647,244.984 267.5,242C 272.529,235.796 276.529,228.963 279.5,221.5C 278.726,220.289 277.893,220.289 277,221.5C 276.027,224.779 274.527,227.779 272.5,230.5C 270.196,228.062 268.53,225.229 267.5,222C 267.978,220.358 268.978,219.191 270.5,218.5 Z"/></g>
<g><path style="opacity:1" fill="#d89c74" d="M 259.5,250.5 C 259.929,257.947 259.429,265.281 258,272.5C 252.593,276.659 247.426,276.326 242.5,271.5C 241.873,270.583 241.539,269.583 241.5,268.5C 244.493,269.82 247.493,271.153 250.5,272.5C 252.593,272.514 254.426,271.848 256,270.5C 256.333,264.167 256.667,257.833 257,251.5C 259.856,246.621 262.023,241.455 263.5,236C 263.132,232.43 261.798,229.263 259.5,226.5C 255.236,226.231 250.903,226.064 246.5,226C 242.689,224.93 239.356,223.097 236.5,220.5C 236.47,219.503 236.97,218.836 238,218.5C 242.161,220.038 246.495,220.705 251,220.5C 255.355,220.723 259.522,220.056 263.5,218.5C 265.897,223.627 268.564,228.627 271.5,233.5C 267.244,239.02 263.244,244.687 259.5,250.5 Z"/></g>
<g><path style="opacity:1" fill="#e67332" d="M 233.5,220.5 C 232.644,223.686 230.977,226.353 228.5,228.5C 226.572,225.212 224.739,221.879 223,218.5C 224.45,226.569 227.95,233.736 233.5,240C 228.713,242.955 224.38,246.455 220.5,250.5C 215.918,242.249 212.418,233.582 210,224.5C 216.831,216.947 224.664,215.614 233.5,220.5 Z"/></g>
<g><path style="opacity:1" fill="#ed9f47" d="M 233.5,220.5 C 224.664,215.614 216.831,216.947 210,224.5C 212.418,233.582 215.918,242.249 220.5,250.5C 220.607,252.379 220.107,252.712 219,251.5C 214.875,242.958 211.042,234.291 207.5,225.5C 212.521,217.16 219.854,213.993 229.5,216C 231.455,216.953 233.122,218.287 234.5,220C 234.272,220.399 233.938,220.565 233.5,220.5 Z"/></g>
<g><path style="opacity:1" fill="#46342c" d="M 252.5,193.5 C 256.555,193.176 260.555,193.509 264.5,194.5C 256.09,195.105 248.09,196.938 240.5,200C 244.147,197.013 248.147,194.846 252.5,193.5 Z"/></g>
<g><path style="opacity:1" fill="#d79b74" d="M 215.5,189.5 C 217.602,192.931 219.435,196.598 221,200.5C 226.433,206.433 232.266,211.767 238.5,216.5C 235.06,214.945 231.727,213.112 228.5,211C 220.578,205.93 216.244,198.763 215.5,189.5 Z"/></g>
<g><path style="opacity:1" fill="#483630" d="M 251.5,167.5 C 253.369,169.635 254.036,172.302 253.5,175.5C 256.271,175.421 258.937,175.921 261.5,177C 262.885,181.326 261.218,183.992 256.5,185C 254.098,185.814 251.765,185.647 249.5,184.5C 252.107,183.682 254.774,183.182 257.5,183C 259.833,181.757 260.5,180.091 259.5,178C 257.19,177.503 254.857,177.337 252.5,177.5C 252.54,174.119 252.207,170.786 251.5,167.5 Z"/></g>
<g><path style="opacity:1" fill="#3d2d28" d="M 207.5,176.5 C 207.897,175.475 208.563,175.308 209.5,176C 211.019,177.351 212.352,178.851 213.5,180.5C 213.167,180.833 212.833,181.167 212.5,181.5C 211.145,179.479 209.479,177.812 207.5,176.5 Z"/></g>
<g><path style="opacity:1" fill="#4e3e38" d="M 292.5,172.5 C 293.376,172.369 294.043,172.702 294.5,173.5C 292.819,176.242 290.819,177.909 288.5,178.5C 289.467,176.21 290.8,174.21 292.5,172.5 Z"/></g>
<g><path style="opacity:1" fill="#887b76" d="M 228.5,166.5 C 229.675,166.281 230.675,166.614 231.5,167.5C 230.007,168.141 229.007,169.141 228.5,170.5C 227.167,169.167 227.167,167.833 228.5,166.5 Z"/></g>
<g><path style="opacity:1" fill="#3c2b26" d="M 228.5,170.5 C 229.007,169.141 230.007,168.141 231.5,167.5C 230.675,166.614 229.675,166.281 228.5,166.5C 230.563,163.027 233.063,162.694 236,165.5C 237.167,171 235,173.167 229.5,172C 228.944,171.617 228.611,171.117 228.5,170.5 Z"/></g>
<g><path style="opacity:1" fill="#41302b" d="M 266.5,162.5 C 272.803,162.924 274.469,165.757 271.5,171C 264.416,171.475 262.749,168.642 266.5,162.5 Z"/></g>
<g><path style="opacity:1" fill="#e1dfde" d="M 265.5,165.5 C 267.337,165.639 267.67,166.306 266.5,167.5C 265.702,167.043 265.369,166.376 265.5,165.5 Z"/></g>
<g><path style="opacity:1" fill="#4c3b34" d="M 159.5,251.5 C 158.833,251.5 158.5,251.833 158.5,252.5C 157.071,248.498 154.738,244.998 151.5,242C 149.005,241.843 146.672,241.676 144.5,241.5C 145.737,240.719 146.737,239.719 147.5,238.5C 145.583,235.417 142.916,233.25 139.5,232C 133.419,231.862 127.419,231.196 121.5,230C 118.729,227.642 116.063,225.142 113.5,222.5C 112.009,223.348 111.342,224.681 111.5,226.5C 113.794,233.461 118.461,238.127 125.5,240.5C 114.271,249.218 102.605,257.385 90.5,265C 88.393,266.264 87.393,268.097 87.5,270.5C 97.2656,268.709 105.266,264.042 111.5,256.5C 114.741,259.287 118.407,261.287 122.5,262.5C 112.821,267.988 103.488,274.154 94.5,281C 99.7387,282.051 103.072,280.051 104.5,275C 106.677,273.798 109.011,273.298 111.5,273.5C 113.199,273.66 114.866,273.494 116.5,273C 119.939,270.473 122.939,267.473 125.5,264C 127.635,263.395 127.969,263.895 126.5,265.5C 121.517,272.992 114.517,276.825 105.5,277C 110.245,279.969 115.245,280.302 120.5,278C 128.098,272.406 135.098,266.073 141.5,259C 145.006,289.5 152.84,319.667 165,349.5C 166.738,353.241 169.238,356.408 172.5,359C 178.827,362.723 184.494,361.89 189.5,356.5C 189.5,356.833 189.5,357.167 189.5,357.5C 187.515,361.441 184.181,363.441 179.5,363.5C 173.065,362.529 168.231,359.196 165,353.5C 151.999,324.835 143.666,294.835 140,263.5C 133.842,270.651 126.675,276.484 118.5,281C 114.465,281.697 110.465,281.53 106.5,280.5C 102.399,282.704 98.0661,283.538 93.5,283C 92.4045,281.325 90.9045,280.158 89,279.5C 88.1041,276.975 88.6041,274.808 90.5,273C 84.5464,271.515 83.8798,268.515 88.5,264C 99.8467,256.994 110.847,249.494 121.5,241.5C 116.474,238.641 112.641,234.641 110,229.5C 108.541,225.132 109.874,222.132 114,220.5C 116.5,223.278 119.333,225.778 122.5,228C 128.419,229.196 134.419,229.862 140.5,230C 144.637,231.637 147.637,234.47 149.5,238.5C 154.996,241.154 158.329,245.487 159.5,251.5 Z"/></g>
<g><path style="opacity:1" fill="#dda27b" d="M 111.5,260.5 C 113.262,260.357 114.929,260.691 116.5,261.5C 117.711,262.274 117.711,263.107 116.5,264C 109.167,268.667 101.833,273.333 94.5,278C 93.2068,278.49 91.8734,278.657 90.5,278.5C 90.7438,275.737 92.0771,273.571 94.5,272C 100.232,268.144 105.899,264.31 111.5,260.5 Z"/></g>
<g><path style="opacity:1" fill="#52372b" d="M 292.5,302.5 C 284.167,302.5 275.833,302.5 267.5,302.5C 267.5,298.167 267.5,293.833 267.5,289.5C 267.195,284.238 267.529,279.072 268.5,274C 276.833,273.333 285.167,273.333 293.5,274C 294.677,283.631 294.344,293.131 292.5,302.5 Z"/></g>
<g><path style="opacity:1" fill="#d79c74" d="M 122.5,262.5 C 123.043,262.56 123.376,262.893 123.5,263.5C 119.454,266.845 115.454,270.179 111.5,273.5C 109.011,273.298 106.677,273.798 104.5,275C 103.072,280.051 99.7387,282.051 94.5,281C 103.488,274.154 112.821,267.988 122.5,262.5 Z"/></g>
<g><path style="opacity:1" fill="#be551f" d="M 270.5,276.5 C 276.645,275.51 282.978,275.177 289.5,275.5C 287.585,279.791 284.252,281.458 279.5,280.5C 277.5,280.167 275.5,279.833 273.5,279.5C 273.121,277.787 272.121,276.787 270.5,276.5 Z"/></g>
<g><path style="opacity:1" fill="#c2541e" d="M 178.5,225.5 C 174.851,230.789 171.684,236.456 169,242.5C 165.449,251.773 166.116,260.773 171,269.5C 175.603,277.707 179.937,286.041 184,294.5C 184.292,290.118 184.792,285.785 185.5,281.5C 188.467,292.871 189.967,304.538 190,316.5C 183.212,297.258 174.545,278.925 164,261.5C 163.192,259.577 162.692,257.577 162.5,255.5C 165.248,243.997 170.582,233.997 178.5,225.5 Z"/></g>
<g><path style="opacity:1" fill="#f6a548" d="M 271.5,282.5 C 271.5,288.167 271.5,293.833 271.5,299.5C 278.167,299.5 284.833,299.5 291.5,299.5C 291.5,299.833 291.5,300.167 291.5,300.5C 284.167,300.5 276.833,300.5 269.5,300.5C 269.5,297.5 269.5,294.5 269.5,291.5C 269.334,287.486 269.501,283.486 270,279.5C 271.039,280.244 271.539,281.244 271.5,282.5 Z"/></g>
<g><path style="opacity:1" fill="#ed9e45" d="M 289.5,275.5 C 290.043,275.56 290.376,275.893 290.5,276.5C 288.528,280.979 285.028,282.646 280,281.5C 275.318,282.187 272.151,280.521 270.5,276.5C 272.121,276.787 273.121,277.787 273.5,279.5C 275.5,279.833 277.5,280.167 279.5,280.5C 284.252,281.458 287.585,279.791 289.5,275.5 Z"/></g>
<g><path style="opacity:1" fill="#ca561d" d="M 291.5,299.5 C 284.833,299.5 278.167,299.5 271.5,299.5C 271.5,293.833 271.5,288.167 271.5,282.5C 277.113,283.785 282.78,283.785 288.5,282.5C 289.145,281.354 289.978,280.354 291,279.5C 291.5,286.158 291.666,292.825 291.5,299.5 Z"/></g>
<g><path style="opacity:1" fill="#eda048" d="M 309.5,279.5 C 310.965,280.406 311.965,281.739 312.5,283.5C 311.77,288.013 310.77,292.346 309.5,296.5C 309.5,290.833 309.5,285.167 309.5,279.5 Z"/></g>
<g><path style="opacity:1" fill="#f9a649" d="M 261.5,278.5 C 264.089,289.494 264.089,300.494 261.5,311.5C 261.5,300.5 261.5,289.5 261.5,278.5 Z"/></g>
<g><path style="opacity:1" fill="#f4a449" d="M 189.5,277.5 C 190.711,284.81 191.878,292.143 193,299.5C 193.5,306.826 193.666,314.159 193.5,321.5C 192.23,307.86 190.23,294.193 187.5,280.5C 187.942,279.261 188.609,278.261 189.5,277.5 Z"/></g>
<g><path style="opacity:0.765" fill="#4d3c35" d="M 317.5,434.5 C 311.051,414.168 307.051,393.501 305.5,372.5C 305.5,371.167 305.5,369.833 305.5,368.5C 305.881,364.881 306.881,361.548 308.5,358.5C 317.968,367.29 326.135,365.956 333,354.5C 346.629,325.139 354.796,294.473 357.5,262.5C 364.298,268.797 370.965,275.297 377.5,282C 383.151,285.048 388.818,285.215 394.5,282.5C 386.305,282.571 379.972,279.237 375.5,272.5C 374.859,271.518 374.193,270.518 373.5,269.5C 373.957,268.702 374.624,268.369 375.5,268.5C 379.177,276.669 385.51,280.503 394.5,280C 395.866,281.6 396.866,283.433 397.5,285.5C 399.957,287.225 402.623,287.725 405.5,287C 396.545,279.712 387.211,273.212 377.5,267.5C 381.752,266.041 385.752,264.041 389.5,261.5C 390.711,262.274 390.711,263.107 389.5,264C 396.084,270.29 403.751,274.457 412.5,276.5C 412.256,273.737 410.923,271.571 408.5,270C 396.748,262.797 385.748,254.63 375.5,245.5C 384.612,243.396 389.279,237.729 389.5,228.5C 388.448,228.351 387.448,228.517 386.5,229C 383.975,232.531 380.641,234.865 376.5,236C 370.833,236.333 365.167,236.667 359.5,237C 356.821,238.346 354.821,240.346 353.5,243C 354.272,244.221 355.272,245.221 356.5,246C 354.189,245.845 351.856,245.845 349.5,246C 346.195,249.464 343.528,253.297 341.5,257.5C 341.5,256.833 341.167,256.5 340.5,256.5C 341.669,250.492 345.002,246.159 350.5,243.5C 352.363,239.47 355.363,236.637 359.5,235C 365.914,234.871 372.247,234.204 378.5,233C 381.646,230.688 384.646,228.188 387.5,225.5C 391.252,227.784 392.419,231.118 391,235.5C 388.031,240.473 383.864,243.973 378.5,246C 388.814,254.157 399.48,261.824 410.5,269C 415.723,272.798 415.723,276.298 410.5,279.5C 411.52,281.432 411.687,283.432 411,285.5C 405.537,290.67 399.87,290.67 394,285.5C 387.494,287.332 381.328,286.499 375.5,283C 370.333,277.833 365.167,272.667 360,267.5C 356.384,298.677 347.718,328.343 334,356.5C 329.131,365.233 321.965,368.066 312.5,365C 310.622,363.457 309.122,361.624 308,359.5C 307.454,384.676 311.287,409.176 319.5,433C 319.164,434.03 318.497,434.53 317.5,434.5 Z"/></g>
<g><path style="opacity:1" fill="#dea47c" d="M 385.5,265.5 C 394.228,269.373 402.061,274.706 409,281.5C 409.483,282.448 409.649,283.448 409.5,284.5C 399.983,280.064 390.983,274.564 382.5,268C 383.942,267.623 384.942,266.79 385.5,265.5 Z"/></g>
<g><path style="opacity:1" fill="#d69b75" d="M 377.5,267.5 C 387.211,273.212 396.545,279.712 405.5,287C 402.623,287.725 399.957,287.225 397.5,285.5C 396.866,283.433 395.866,281.6 394.5,280C 385.51,280.503 379.177,276.669 375.5,268.5C 376.167,268.167 376.833,267.833 377.5,267.5 Z"/></g>
<g><path style="opacity:1" fill="#b97b3b" d="M 269.5,291.5 C 269.5,294.5 269.5,297.5 269.5,300.5C 276.833,300.5 284.167,300.5 291.5,300.5C 284.018,301.492 276.352,301.825 268.5,301.5C 268.187,297.958 268.521,294.625 269.5,291.5 Z"/></g>
<g><path style="opacity:1" fill="#8e6956" d="M 267.5,289.5 C 267.5,293.833 267.5,298.167 267.5,302.5C 275.833,302.5 284.167,302.5 292.5,302.5C 284.016,303.493 275.349,303.826 266.5,303.5C 266.181,298.637 266.514,293.97 267.5,289.5 Z"/></g>
<g><path style="opacity:1" fill="#f09d45" d="M 238.5,281.5 C 238.777,294.537 238.443,307.537 237.5,320.5C 236.834,315.678 236.501,310.678 236.5,305.5C 236.366,297.282 237.033,289.282 238.5,281.5 Z"/></g>
<g><path style="opacity:1" fill="#cc581e" d="M 237.5,334.5 C 236.029,371.494 234.696,408.494 233.5,445.5C 225.845,447.386 218.512,446.553 211.5,443C 210.743,441.488 209.743,440.154 208.5,439C 202.166,439.673 195.833,439.339 189.5,438C 186.135,437.495 183.135,436.328 180.5,434.5C 188.958,411.98 193.625,388.647 194.5,364.5C 194.498,361.314 194.165,358.314 193.5,355.5C 193.5,347.833 193.5,340.167 193.5,332.5C 194.222,332.082 194.722,331.416 195,330.5C 196.76,343.98 196.927,357.48 195.5,371C 195.654,384.643 201.32,395.309 212.5,403C 219.942,406.178 225.775,404.345 230,397.5C 231.99,388.269 233.323,378.936 234,369.5C 234.635,355.832 235.302,342.165 236,328.5C 236.191,330.708 236.691,332.708 237.5,334.5 Z"/></g>
<g><path style="opacity:1" fill="#cc581e" d="M 261.5,321.5 C 263.067,332.973 264.234,344.64 265,356.5C 265.283,372.185 265.95,387.851 267,403.5C 268,406.833 269,410.167 270,413.5C 271.792,417.128 274.625,419.461 278.5,420.5C 283.053,418.784 286.553,415.784 289,411.5C 301.291,388.38 306.291,363.714 304,337.5C 304.177,341.356 304.677,345.023 305.5,348.5C 305.5,355.167 305.5,361.833 305.5,368.5C 305.5,369.833 305.5,371.167 305.5,372.5C 305.463,393.612 308.463,414.279 314.5,434.5C 312.833,434.5 311.167,434.5 309.5,434.5C 299.464,443.136 288.297,444.803 276,439.5C 272.25,442.139 268.083,443.472 263.5,443.5C 262.707,402.837 262.041,362.17 261.5,321.5 Z"/></g>
<g><path style="opacity:1" fill="#e99c45" d="M 193.5,355.5 C 194.165,358.314 194.498,361.314 194.5,364.5C 193.625,388.647 188.958,411.98 180.5,434.5C 179.508,434.672 178.842,434.338 178.5,433.5C 187.345,408.273 192.345,382.273 193.5,355.5 Z"/></g>
<g><path style="opacity:1" fill="#ea9a47" d="M 305.5,372.5 C 307.051,393.501 311.051,414.168 317.5,434.5C 314.833,435.833 312.167,435.833 309.5,434.5C 311.167,434.5 312.833,434.5 314.5,434.5C 308.463,414.279 305.463,393.612 305.5,372.5 Z"/></g>
<g><path style="opacity:1" fill="#442d23" d="M 240.5,247.5 C 241.462,254.412 241.795,261.412 241.5,268.5C 241.539,269.583 241.873,270.583 242.5,271.5C 247.426,276.326 252.593,276.659 258,272.5C 259.429,265.281 259.929,257.947 259.5,250.5C 260.167,250.5 260.5,250.833 260.5,251.5C 260.442,259.521 260.776,267.521 261.5,275.5C 261.5,276.5 261.5,277.5 261.5,278.5C 261.5,289.5 261.5,300.5 261.5,311.5C 261.5,314.833 261.5,318.167 261.5,321.5C 262.041,362.17 262.707,402.837 263.5,443.5C 262.223,442.306 261.556,440.64 261.5,438.5C 260.819,429.512 260.319,420.512 260,411.5C 252.225,412.625 244.392,412.625 236.5,411.5C 236.4,422.509 236.066,433.509 235.5,444.5C 234.833,444.833 234.167,445.167 233.5,445.5C 234.696,408.494 236.029,371.494 237.5,334.5C 237.5,329.833 237.5,325.167 237.5,320.5C 238.443,307.537 238.777,294.537 238.5,281.5C 238.5,281.167 238.5,280.833 238.5,280.5C 239.494,270.013 239.828,259.346 239.5,248.5C 239.5,247.833 239.833,247.5 240.5,247.5 Z"/></g>
<g><path style="opacity:1" fill="#417783" d="M 259.5,332.5 C 260.829,358.003 260.829,383.67 259.5,409.5C 251.97,410.82 244.47,410.82 237,409.5C 236.96,392.156 237.46,374.822 238.5,357.5C 239.469,366.686 242.303,375.353 247,383.5C 248.396,385.527 250.062,385.86 252,384.5C 256.743,374.387 259.243,363.72 259.5,352.5C 259.5,345.833 259.5,339.167 259.5,332.5 Z"/></g>
<g><path style="opacity:1" fill="#5491a4" d="M 259.5,352.5 C 259.243,363.72 256.743,374.387 252,384.5C 250.062,385.86 248.396,385.527 247,383.5C 242.303,375.353 239.469,366.686 238.5,357.5C 238.531,339.652 239.198,321.985 240.5,304.5C 240.334,309.179 240.501,313.845 241,318.5C 242.727,305.227 243.727,291.894 244,278.5C 247.964,280.824 252.13,281.157 256.5,279.5C 256.474,304.031 257.474,328.365 259.5,352.5 Z"/></g>
<g><path style="opacity:1" fill="#75adbb" d="M 259.5,332.5 C 259.5,339.167 259.5,345.833 259.5,352.5C 257.474,328.365 256.474,304.031 256.5,279.5C 252.13,281.157 247.964,280.824 244,278.5C 243.727,291.894 242.727,305.227 241,318.5C 240.501,313.845 240.334,309.179 240.5,304.5C 240.168,294.145 240.501,283.812 241.5,273.5C 246.941,278.355 252.608,278.688 258.5,274.5C 259.5,293.822 259.833,313.155 259.5,332.5 Z"/></g>
<g><path style="opacity:0.998" fill="#4d372f" d="M 263.5,443.5 C 256.508,444.721 249.508,444.054 242.5,441.5C 240.03,442.237 237.696,443.237 235.5,444.5C 236.066,433.509 236.4,422.509 236.5,411.5C 244.392,412.625 252.225,412.625 260,411.5C 260.319,420.512 260.819,429.512 261.5,438.5C 261.556,440.64 262.223,442.306 263.5,443.5 Z"/></g>
</svg>
